<svg width="143" height="28" viewBox="0 0 143 28" fill="none" xmlns="http://www.w3.org/2000/svg">
<path d="M7 26.8333C6.02778 26.8333 5.20139 26.4931 4.52083 25.8125C3.84028 25.1319 3.5 24.3056 3.5 23.3333C3.5 22.3611 3.84028 21.5347 4.52083 20.8542C5.20139 20.1736 6.02778 19.8333 7 19.8333C7.27222 19.8333 7.525 19.8625 7.75833 19.9208C7.99167 19.9792 8.21528 20.0569 8.42917 20.1542L10.0917 18.0833C9.54722 17.4806 9.16806 16.8 8.95417 16.0417C8.74028 15.2833 8.69167 14.525 8.80833 13.7667L6.44583 12.9792C6.11528 13.4653 5.69722 13.8542 5.19167 14.1458C4.68611 14.4375 4.12222 14.5833 3.5 14.5833C2.52778 14.5833 1.70139 14.2431 1.02083 13.5625C0.340278 12.8819 0 12.0556 0 11.0833C0 10.1111 0.340278 9.28472 1.02083 8.60417C1.70139 7.92361 2.52778 7.58333 3.5 7.58333C4.47222 7.58333 5.29861 7.92361 5.97917 8.60417C6.65972 9.28472 7 10.1111 7 11.0833V11.3167L9.3625 12.1333C9.75139 11.4333 10.2717 10.8403 10.9235 10.3542C11.5753 9.86806 12.3091 9.55695 13.125 9.42083V6.88333C12.3667 6.66945 11.7394 6.25606 11.2432 5.64317C10.7469 5.03028 10.4992 4.31589 10.5 3.5C10.5 2.52778 10.8403 1.70139 11.5208 1.02083C12.2014 0.340278 13.0278 0 14 0C14.9722 0 15.7986 0.340278 16.4792 1.02083C17.1597 1.70139 17.5 2.52778 17.5 3.5C17.5 4.31667 17.2472 5.03145 16.7417 5.64433C16.2361 6.25722 15.6139 6.67022 14.875 6.88333V9.42083C15.6917 9.55695 16.4259 9.86806 17.0777 10.3542C17.7294 10.8403 18.2494 11.4333 18.6375 12.1333L21 11.3167V11.0833C21 10.1111 21.3403 9.28472 22.0208 8.60417C22.7014 7.92361 23.5278 7.58333 24.5 7.58333C25.4722 7.58333 26.2986 7.92361 26.9792 8.60417C27.6597 9.28472 28 10.1111 28 11.0833C28 12.0556 27.6597 12.8819 26.9792 13.5625C26.2986 14.2431 25.4722 14.5833 24.5 14.5833C23.8778 14.5833 23.3088 14.4375 22.7932 14.1458C22.2775 13.8542 21.8645 13.4653 21.5542 12.9792L19.1917 13.7667C19.3083 14.525 19.2597 15.2787 19.0458 16.0277C18.8319 16.7767 18.4528 17.4619 17.9083 18.0833L19.5708 20.125C19.7847 20.0278 20.0083 19.9547 20.2417 19.9057C20.475 19.8567 20.7278 19.8326 21 19.8333C21.9722 19.8333 22.7986 20.1736 23.4792 20.8542C24.1597 21.5347 24.5 22.3611 24.5 23.3333C24.5 24.3056 24.1597 25.1319 23.4792 25.8125C22.7986 26.4931 21.9722 26.8333 21 26.8333C20.0278 26.8333 19.2014 26.4931 18.5208 25.8125C17.8403 25.1319 17.5 24.3056 17.5 23.3333C17.5 22.9444 17.5634 22.5699 17.6902 22.2098C17.8169 21.8497 17.9869 21.5242 18.2 21.2333L16.5375 19.1625C15.7403 19.6097 14.8894 19.8333 13.9848 19.8333C13.0803 19.8333 12.2298 19.6097 11.4333 19.1625L9.8 21.2333C10.0139 21.525 10.1842 21.8509 10.311 22.211C10.4378 22.5711 10.5008 22.9452 10.5 23.3333C10.5 24.3056 10.1597 25.1319 9.47917 25.8125C8.79861 26.4931 7.97222 26.8333 7 26.8333ZM3.5 12.25C3.83056 12.25 4.10783 12.138 4.33183 11.914C4.55583 11.69 4.66744 11.4131 4.66667 11.0833C4.66667 10.7528 4.55467 10.4755 4.33067 10.2515C4.10667 10.0275 3.82978 9.91589 3.5 9.91667C3.16944 9.91667 2.89217 10.0287 2.66817 10.2527C2.44417 10.4767 2.33256 10.7536 2.33333 11.0833C2.33333 11.4139 2.44533 11.6912 2.66933 11.9152C2.89333 12.1392 3.17022 12.2508 3.5 12.25ZM7 24.5C7.33056 24.5 7.60783 24.388 7.83183 24.164C8.05583 23.94 8.16744 23.6631 8.16667 23.3333C8.16667 23.0028 8.05467 22.7255 7.83067 22.5015C7.60667 22.2775 7.32978 22.1659 7 22.1667C6.66944 22.1667 6.39217 22.2787 6.16817 22.5027C5.94417 22.7267 5.83256 23.0036 5.83333 23.3333C5.83333 23.6639 5.94533 23.9412 6.16933 24.1652C6.39333 24.3892 6.67022 24.5008 7 24.5ZM14 4.66667C14.3306 4.66667 14.6078 4.55467 14.8318 4.33067C15.0558 4.10667 15.1674 3.82978 15.1667 3.5C15.1667 3.16945 15.0547 2.89217 14.8307 2.66817C14.6067 2.44417 14.3298 2.33256 14 2.33333C13.6694 2.33333 13.3922 2.44533 13.1682 2.66933C12.9442 2.89333 12.8326 3.17022 12.8333 3.5C12.8333 3.83056 12.9453 4.10783 13.1693 4.33183C13.3933 4.55583 13.6702 4.66745 14 4.66667ZM14 17.5C14.8167 17.5 15.5069 17.2181 16.0708 16.6542C16.6347 16.0903 16.9167 15.4 16.9167 14.5833C16.9167 13.7667 16.6347 13.0764 16.0708 12.5125C15.5069 11.9486 14.8167 11.6667 14 11.6667C13.1833 11.6667 12.4931 11.9486 11.9292 12.5125C11.3653 13.0764 11.0833 13.7667 11.0833 14.5833C11.0833 15.4 11.3653 16.0903 11.9292 16.6542C12.4931 17.2181 13.1833 17.5 14 17.5ZM21 24.5C21.3306 24.5 21.6078 24.388 21.8318 24.164C22.0558 23.94 22.1674 23.6631 22.1667 23.3333C22.1667 23.0028 22.0547 22.7255 21.8307 22.5015C21.6067 22.2775 21.3298 22.1659 21 22.1667C20.6694 22.1667 20.3922 22.2787 20.1682 22.5027C19.9442 22.7267 19.8326 23.0036 19.8333 23.3333C19.8333 23.6639 19.9453 23.9412 20.1693 24.1652C20.3933 24.3892 20.6702 24.5008 21 24.5ZM24.5 12.25C24.8306 12.25 25.1078 12.138 25.3318 11.914C25.5558 11.69 25.6674 11.4131 25.6667 11.0833C25.6667 10.7528 25.5547 10.4755 25.3307 10.2515C25.1067 10.0275 24.8298 9.91589 24.5 9.91667C24.1694 9.91667 23.8922 10.0287 23.6682 10.2527C23.4442 10.4767 23.3326 10.7536 23.3333 11.0833C23.3333 11.4139 23.4453 11.6912 23.6693 11.9152C23.8933 12.1392 24.1702 12.2508 24.5 12.25Z" fill="#FFCF3F"/>
<path d="M35.7344 4.9375H41.7695C43.0664 4.9375 44.1719 5.13281 45.0859 5.52344C46 5.91406 46.6992 6.49219 47.1836 7.25781C47.6758 8.01562 47.9219 8.95312 47.9219 10.0703C47.9219 10.9219 47.7656 11.6719 47.4531 12.3203C47.1406 12.9688 46.6992 13.5156 46.1289 13.9609C45.5586 14.3984 44.8789 14.7383 44.0898 14.9805L43.1992 15.4141H37.7734L37.75 13.082H41.8164C42.5195 13.082 43.1055 12.957 43.5742 12.707C44.043 12.457 44.3945 12.1172 44.6289 11.6875C44.8711 11.25 44.9922 10.7578 44.9922 10.2109C44.9922 9.61719 44.875 9.10156 44.6406 8.66406C44.4141 8.21875 44.0625 7.87891 43.5859 7.64453C43.1094 7.40234 42.5039 7.28125 41.7695 7.28125H38.6758V22H35.7344V4.9375ZM45.4727 22L41.4648 14.3359L44.5469 14.3242L48.6133 21.8477V22H45.4727ZM53.1138 9.32031V22H50.2778V9.32031H53.1138ZM50.0903 5.99219C50.0903 5.5625 50.2309 5.20703 50.5122 4.92578C50.8013 4.63672 51.1997 4.49219 51.7075 4.49219C52.2075 4.49219 52.602 4.63672 52.8911 4.92578C53.1802 5.20703 53.3247 5.5625 53.3247 5.99219C53.3247 6.41406 53.1802 6.76562 52.8911 7.04688C52.602 7.32812 52.2075 7.46875 51.7075 7.46875C51.1997 7.46875 50.8013 7.32812 50.5122 7.04688C50.2309 6.76562 50.0903 6.41406 50.0903 5.99219ZM59.5478 22H56.7236V8.10156C56.7236 7.15625 56.8994 6.36328 57.2509 5.72266C57.6103 5.07422 58.122 4.58594 58.7861 4.25781C59.4502 3.92187 60.2353 3.75391 61.1416 3.75391C61.4228 3.75391 61.7002 3.77344 61.9736 3.8125C62.247 3.84375 62.5127 3.89453 62.7705 3.96484L62.7002 6.14453C62.5439 6.10547 62.372 6.07812 62.1845 6.0625C62.0048 6.04688 61.8095 6.03906 61.5986 6.03906C61.1689 6.03906 60.7978 6.12109 60.4853 6.28516C60.1806 6.44141 59.9463 6.67188 59.7822 6.97656C59.6259 7.28125 59.5478 7.65625 59.5478 8.10156V22ZM62.1611 9.32031V11.3828H54.7783V9.32031H62.1611ZM70.8803 19.457V13.4102C70.8803 12.957 70.7983 12.5664 70.6342 12.2383C70.4702 11.9102 70.2202 11.6562 69.8842 11.4766C69.5561 11.2969 69.142 11.207 68.642 11.207C68.1811 11.207 67.7827 11.2852 67.4467 11.4414C67.1108 11.5977 66.8491 11.8086 66.6616 12.0742C66.4741 12.3398 66.3803 12.6406 66.3803 12.9766H63.5678C63.5678 12.4766 63.6889 11.9922 63.9311 11.5234C64.1733 11.0547 64.5248 10.6367 64.9858 10.2695C65.4467 9.90234 65.9975 9.61328 66.6381 9.40234C67.2787 9.19141 67.9975 9.08594 68.7944 9.08594C69.7475 9.08594 70.5912 9.24609 71.3256 9.56641C72.0678 9.88672 72.6498 10.3711 73.0717 11.0195C73.5014 11.6602 73.7162 12.4648 73.7162 13.4336V19.0703C73.7162 19.6484 73.7553 20.168 73.8334 20.6289C73.9194 21.082 74.0405 21.4766 74.1967 21.8125V22H71.3022C71.1694 21.6953 71.0639 21.3086 70.9858 20.8398C70.9155 20.3633 70.8803 19.9023 70.8803 19.457ZM71.2905 14.2891L71.3139 16.0352H69.2866C68.7631 16.0352 68.3022 16.0859 67.9037 16.1875C67.5053 16.2812 67.1733 16.4219 66.9077 16.6094C66.642 16.7969 66.4428 17.0234 66.31 17.2891C66.1772 17.5547 66.1108 17.8555 66.1108 18.1914C66.1108 18.5273 66.1889 18.8359 66.3452 19.1172C66.5014 19.3906 66.728 19.6055 67.0248 19.7617C67.3295 19.918 67.6967 19.9961 68.1264 19.9961C68.7045 19.9961 69.2084 19.8789 69.6381 19.6445C70.0756 19.4023 70.4194 19.1094 70.6694 18.7656C70.9194 18.4141 71.0522 18.082 71.0678 17.7695L71.9819 19.0234C71.8881 19.3438 71.728 19.6875 71.5014 20.0547C71.2748 20.4219 70.978 20.7734 70.6108 21.1094C70.2514 21.4375 69.8178 21.707 69.31 21.918C68.81 22.1289 68.2319 22.2344 67.5756 22.2344C66.7475 22.2344 66.0092 22.0703 65.3608 21.7422C64.7123 21.4062 64.2045 20.957 63.8373 20.3945C63.4702 19.8242 63.2866 19.1797 63.2866 18.4609C63.2866 17.7891 63.4116 17.1953 63.6616 16.6797C63.9194 16.1562 64.2944 15.7188 64.7866 15.3672C65.2866 15.0156 65.8959 14.75 66.6147 14.5703C67.3334 14.3828 68.1537 14.2891 69.0756 14.2891H71.2905ZM83.3378 19.457V13.4102C83.3378 12.957 83.2558 12.5664 83.0917 12.2383C82.9277 11.9102 82.6777 11.6562 82.3417 11.4766C82.0136 11.2969 81.5995 11.207 81.0995 11.207C80.6386 11.207 80.2402 11.2852 79.9042 11.4414C79.5683 11.5977 79.3066 11.8086 79.1191 12.0742C78.9316 12.3398 78.8378 12.6406 78.8378 12.9766H76.0253C76.0253 12.4766 76.1464 11.9922 76.3886 11.5234C76.6308 11.0547 76.9823 10.6367 77.4433 10.2695C77.9042 9.90234 78.455 9.61328 79.0956 9.40234C79.7363 9.19141 80.455 9.08594 81.2519 9.08594C82.205 9.08594 83.0488 9.24609 83.7831 9.56641C84.5253 9.88672 85.1073 10.3711 85.5292 11.0195C85.9589 11.6602 86.1738 12.4648 86.1738 13.4336V19.0703C86.1738 19.6484 86.2128 20.168 86.2909 20.6289C86.3769 21.082 86.498 21.4766 86.6542 21.8125V22H83.7597C83.6269 21.6953 83.5214 21.3086 83.4433 20.8398C83.373 20.3633 83.3378 19.9023 83.3378 19.457ZM83.748 14.2891L83.7714 16.0352H81.7441C81.2206 16.0352 80.7597 16.0859 80.3613 16.1875C79.9628 16.2812 79.6308 16.4219 79.3652 16.6094C79.0995 16.7969 78.9003 17.0234 78.7675 17.2891C78.6347 17.5547 78.5683 17.8555 78.5683 18.1914C78.5683 18.5273 78.6464 18.8359 78.8027 19.1172C78.9589 19.3906 79.1855 19.6055 79.4823 19.7617C79.787 19.918 80.1542 19.9961 80.5839 19.9961C81.162 19.9961 81.6659 19.8789 82.0956 19.6445C82.5331 19.4023 82.8769 19.1094 83.1269 18.7656C83.3769 18.4141 83.5097 18.082 83.5253 17.7695L84.4394 19.0234C84.3456 19.3438 84.1855 19.6875 83.9589 20.0547C83.7323 20.4219 83.4355 20.7734 83.0683 21.1094C82.7089 21.4375 82.2753 21.707 81.7675 21.918C81.2675 22.1289 80.6894 22.2344 80.0331 22.2344C79.205 22.2344 78.4667 22.0703 77.8183 21.7422C77.1698 21.4062 76.662 20.957 76.2948 20.3945C75.9277 19.8242 75.7441 19.1797 75.7441 18.4609C75.7441 17.7891 75.8691 17.1953 76.1191 16.6797C76.3769 16.1562 76.7519 15.7188 77.2441 15.3672C77.7441 15.0156 78.3534 14.75 79.0722 14.5703C79.7909 14.3828 80.6113 14.2891 81.5331 14.2891H83.748ZM96.3695 26.875V11.8398L96.6977 9.32031H99.2172V26.875H96.3695ZM88.1312 15.7891V15.543C88.1312 14.582 88.2406 13.707 88.4594 12.918C88.6781 12.1211 89.0023 11.4375 89.432 10.8672C89.8617 10.2969 90.3852 9.85938 91.0023 9.55469C91.6195 9.24219 92.3305 9.08594 93.1352 9.08594C93.9164 9.08594 94.5961 9.23438 95.1742 9.53125C95.7602 9.82812 96.2523 10.2539 96.6508 10.8086C97.057 11.3555 97.3812 12.0078 97.6234 12.7656C97.8656 13.5234 98.0414 14.3672 98.1508 15.2969V16.082C98.0492 16.9883 97.8773 17.8164 97.6352 18.5664C97.393 19.3164 97.0687 19.9648 96.6625 20.5117C96.2562 21.0586 95.7602 21.4844 95.1742 21.7891C94.5883 22.0859 93.9008 22.2344 93.1117 22.2344C92.3227 22.2344 91.6195 22.0742 91.0023 21.7539C90.3852 21.4336 89.8617 20.9844 89.432 20.4062C89.0102 19.8203 88.6859 19.1367 88.4594 18.3555C88.2406 17.5664 88.1312 16.7109 88.1312 15.7891ZM90.9555 15.543V15.7891C90.9555 16.3672 91.0062 16.9102 91.1078 17.418C91.2172 17.918 91.3891 18.3633 91.6234 18.7539C91.8578 19.1367 92.1547 19.4375 92.5141 19.6562C92.8734 19.875 93.307 19.9844 93.8148 19.9844C94.4789 19.9844 95.0219 19.8398 95.4437 19.5508C95.8734 19.2617 96.2016 18.875 96.4281 18.3906C96.6625 17.8984 96.8266 17.3555 96.9203 16.7617V14.6406C96.8656 14.1797 96.768 13.75 96.6273 13.3516C96.4867 12.9453 96.2914 12.5938 96.0414 12.2969C95.7992 11.9922 95.4945 11.7578 95.1273 11.5938C94.768 11.4219 94.3383 11.3359 93.8383 11.3359C93.3305 11.3359 92.893 11.4453 92.5258 11.6641C92.1586 11.8828 91.8578 12.1875 91.6234 12.5781C91.3969 12.9609 91.2289 13.4062 91.1195 13.9141C91.0102 14.4219 90.9555 14.9648 90.9555 15.543Z" fill="#FEFEFE"/>
<path d="M113.008 12.0625V14.3945H103.949V12.0625H113.008ZM104.676 4.9375V22H101.734V4.9375H104.676ZM115.27 4.9375V22H112.34V4.9375H115.27ZM125.641 19.0117V9.32031H128.477V22H125.805L125.641 19.0117ZM126.04 16.375L126.989 16.3516C126.989 17.2031 126.895 17.9883 126.708 18.707C126.52 19.418 126.231 20.0391 125.84 20.5703C125.45 21.0938 124.95 21.5039 124.34 21.8008C123.731 22.0898 123 22.2344 122.149 22.2344C121.532 22.2344 120.965 22.1445 120.45 21.9648C119.934 21.7852 119.489 21.5078 119.114 21.1328C118.747 20.7578 118.461 20.2695 118.258 19.668C118.055 19.0664 117.954 18.3477 117.954 17.5117V9.32031H120.778V17.5352C120.778 17.9961 120.833 18.3828 120.942 18.6953C121.051 19 121.2 19.2461 121.387 19.4336C121.575 19.6211 121.793 19.7539 122.043 19.832C122.293 19.9102 122.559 19.9492 122.84 19.9492C123.645 19.9492 124.278 19.793 124.739 19.4805C125.208 19.1602 125.54 18.7305 125.735 18.1914C125.938 17.6523 126.04 17.0469 126.04 16.375ZM130.903 4H133.728V19.293L133.458 22H130.903V4ZM142.001 15.543V15.7891C142.001 16.7266 141.895 17.5898 141.685 18.3789C141.481 19.1602 141.169 19.8398 140.747 20.418C140.333 20.9961 139.817 21.4453 139.2 21.7656C138.591 22.0781 137.884 22.2344 137.079 22.2344C136.29 22.2344 135.603 22.0859 135.017 21.7891C134.431 21.4922 133.938 21.0703 133.54 20.5234C133.149 19.9766 132.833 19.3242 132.591 18.5664C132.349 17.8086 132.177 16.9727 132.075 16.0586V15.2734C132.177 14.3516 132.349 13.5156 132.591 12.7656C132.833 12.0078 133.149 11.3555 133.54 10.8086C133.938 10.2539 134.427 9.82812 135.005 9.53125C135.591 9.23438 136.274 9.08594 137.056 9.08594C137.868 9.08594 138.583 9.24219 139.2 9.55469C139.825 9.86719 140.345 10.3125 140.759 10.8906C141.173 11.4609 141.481 12.1406 141.685 12.9297C141.895 13.7188 142.001 14.5898 142.001 15.543ZM139.177 15.7891V15.543C139.177 14.9727 139.13 14.4375 139.036 13.9375C138.942 13.4297 138.786 12.9844 138.567 12.6016C138.356 12.2188 138.067 11.918 137.7 11.6992C137.341 11.4727 136.892 11.3594 136.353 11.3594C135.853 11.3594 135.423 11.4453 135.063 11.6172C134.704 11.7891 134.403 12.0234 134.161 12.3203C133.919 12.6172 133.728 12.9609 133.587 13.3516C133.454 13.7422 133.364 14.1641 133.317 14.6172V16.7383C133.388 17.3242 133.536 17.8633 133.763 18.3555C133.997 18.8398 134.325 19.2305 134.747 19.5273C135.169 19.8164 135.712 19.9609 136.376 19.9609C136.899 19.9609 137.341 19.8555 137.7 19.6445C138.06 19.4336 138.345 19.1406 138.556 18.7656C138.774 18.3828 138.931 17.9375 139.024 17.4297C139.126 16.9219 139.177 16.375 139.177 15.7891Z" fill="#FEFEFE"/>
</svg>
