<svg width="28" height="28" viewBox="0 0 28 28" fill="none" xmlns="http://www.w3.org/2000/svg">
<path d="M7 26.8333C6.02778 26.8333 5.20139 26.4931 4.52083 25.8125C3.84028 25.1319 3.5 24.3056 3.5 23.3333C3.5 22.3611 3.84028 21.5347 4.52083 20.8542C5.20139 20.1736 6.02778 19.8333 7 19.8333C7.27222 19.8333 7.525 19.8625 7.75833 19.9208C7.99167 19.9792 8.21528 20.0569 8.42917 20.1542L10.0917 18.0833C9.54722 17.4806 9.16806 16.8 8.95417 16.0417C8.74028 15.2833 8.69167 14.525 8.80833 13.7667L6.44583 12.9792C6.11528 13.4653 5.69722 13.8542 5.19167 14.1458C4.68611 14.4375 4.12222 14.5833 3.5 14.5833C2.52778 14.5833 1.70139 14.2431 1.02083 13.5625C0.340278 12.8819 0 12.0556 0 11.0833C0 10.1111 0.340278 9.28472 1.02083 8.60417C1.70139 7.92361 2.52778 7.58333 3.5 7.58333C4.47222 7.58333 5.29861 7.92361 5.97917 8.60417C6.65972 9.28472 7 10.1111 7 11.0833V11.3167L9.3625 12.1333C9.75139 11.4333 10.2717 10.8403 10.9235 10.3542C11.5753 9.86806 12.3091 9.55695 13.125 9.42083V6.88333C12.3667 6.66945 11.7394 6.25606 11.2432 5.64317C10.7469 5.03028 10.4992 4.31589 10.5 3.5C10.5 2.52778 10.8403 1.70139 11.5208 1.02083C12.2014 0.340278 13.0278 0 14 0C14.9722 0 15.7986 0.340278 16.4792 1.02083C17.1597 1.70139 17.5 2.52778 17.5 3.5C17.5 4.31667 17.2472 5.03145 16.7417 5.64433C16.2361 6.25722 15.6139 6.67022 14.875 6.88333V9.42083C15.6917 9.55695 16.4259 9.86806 17.0777 10.3542C17.7294 10.8403 18.2494 11.4333 18.6375 12.1333L21 11.3167V11.0833C21 10.1111 21.3403 9.28472 22.0208 8.60417C22.7014 7.92361 23.5278 7.58333 24.5 7.58333C25.4722 7.58333 26.2986 7.92361 26.9792 8.60417C27.6597 9.28472 28 10.1111 28 11.0833C28 12.0556 27.6597 12.8819 26.9792 13.5625C26.2986 14.2431 25.4722 14.5833 24.5 14.5833C23.8778 14.5833 23.3088 14.4375 22.7932 14.1458C22.2775 13.8542 21.8645 13.4653 21.5542 12.9792L19.1917 13.7667C19.3083 14.525 19.2597 15.2787 19.0458 16.0277C18.8319 16.7767 18.4528 17.4619 17.9083 18.0833L19.5708 20.125C19.7847 20.0278 20.0083 19.9547 20.2417 19.9057C20.475 19.8567 20.7278 19.8326 21 19.8333C21.9722 19.8333 22.7986 20.1736 23.4792 20.8542C24.1597 21.5347 24.5 22.3611 24.5 23.3333C24.5 24.3056 24.1597 25.1319 23.4792 25.8125C22.7986 26.4931 21.9722 26.8333 21 26.8333C20.0278 26.8333 19.2014 26.4931 18.5208 25.8125C17.8403 25.1319 17.5 24.3056 17.5 23.3333C17.5 22.9444 17.5634 22.5699 17.6902 22.2098C17.8169 21.8497 17.9869 21.5242 18.2 21.2333L16.5375 19.1625C15.7403 19.6097 14.8894 19.8333 13.9848 19.8333C13.0803 19.8333 12.2298 19.6097 11.4333 19.1625L9.8 21.2333C10.0139 21.525 10.1842 21.8509 10.311 22.211C10.4378 22.5711 10.5008 22.9452 10.5 23.3333C10.5 24.3056 10.1597 25.1319 9.47917 25.8125C8.79861 26.4931 7.97222 26.8333 7 26.8333ZM3.5 12.25C3.83056 12.25 4.10783 12.138 4.33183 11.914C4.55583 11.69 4.66744 11.4131 4.66667 11.0833C4.66667 10.7528 4.55467 10.4755 4.33067 10.2515C4.10667 10.0275 3.82978 9.91589 3.5 9.91667C3.16944 9.91667 2.89217 10.0287 2.66817 10.2527C2.44417 10.4767 2.33256 10.7536 2.33333 11.0833C2.33333 11.4139 2.44533 11.6912 2.66933 11.9152C2.89333 12.1392 3.17022 12.2508 3.5 12.25ZM7 24.5C7.33056 24.5 7.60783 24.388 7.83183 24.164C8.05583 23.94 8.16744 23.6631 8.16667 23.3333C8.16667 23.0028 8.05467 22.7255 7.83067 22.5015C7.60667 22.2775 7.32978 22.1659 7 22.1667C6.66944 22.1667 6.39217 22.2787 6.16817 22.5027C5.94417 22.7267 5.83256 23.0036 5.83333 23.3333C5.83333 23.6639 5.94533 23.9412 6.16933 24.1652C6.39333 24.3892 6.67022 24.5008 7 24.5ZM14 4.66667C14.3306 4.66667 14.6078 4.55467 14.8318 4.33067C15.0558 4.10667 15.1674 3.82978 15.1667 3.5C15.1667 3.16945 15.0547 2.89217 14.8307 2.66817C14.6067 2.44417 14.3298 2.33256 14 2.33333C13.6694 2.33333 13.3922 2.44533 13.1682 2.66933C12.9442 2.89333 12.8326 3.17022 12.8333 3.5C12.8333 3.83056 12.9453 4.10783 13.1693 4.33183C13.3933 4.55583 13.6702 4.66745 14 4.66667ZM14 17.5C14.8167 17.5 15.5069 17.2181 16.0708 16.6542C16.6347 16.0903 16.9167 15.4 16.9167 14.5833C16.9167 13.7667 16.6347 13.0764 16.0708 12.5125C15.5069 11.9486 14.8167 11.6667 14 11.6667C13.1833 11.6667 12.4931 11.9486 11.9292 12.5125C11.3653 13.0764 11.0833 13.7667 11.0833 14.5833C11.0833 15.4 11.3653 16.0903 11.9292 16.6542C12.4931 17.2181 13.1833 17.5 14 17.5ZM21 24.5C21.3306 24.5 21.6078 24.388 21.8318 24.164C22.0558 23.94 22.1674 23.6631 22.1667 23.3333C22.1667 23.0028 22.0547 22.7255 21.8307 22.5015C21.6067 22.2775 21.3298 22.1659 21 22.1667C20.6694 22.1667 20.3922 22.2787 20.1682 22.5027C19.9442 22.7267 19.8326 23.0036 19.8333 23.3333C19.8333 23.6639 19.9453 23.9412 20.1693 24.1652C20.3933 24.3892 20.6702 24.5008 21 24.5ZM24.5 12.25C24.8306 12.25 25.1078 12.138 25.3318 11.914C25.5558 11.69 25.6674 11.4131 25.6667 11.0833C25.6667 10.7528 25.5547 10.4755 25.3307 10.2515C25.1067 10.0275 24.8298 9.91589 24.5 9.91667C24.1694 9.91667 23.8922 10.0287 23.6682 10.2527C23.4442 10.4767 23.3326 10.7536 23.3333 11.0833C23.3333 11.4139 23.4453 11.6912 23.6693 11.9152C23.8933 12.1392 24.1702 12.2508 24.5 12.25Z" fill="#FFCF3F"/>
</svg>
